<svg xmlns="http://www.w3.org/2000/svg" xmlns:xlink="http://www.w3.org/1999/xlink" width="1080" zoomAndPan="magnify" viewBox="0 0 810 809.999993" height="1080" preserveAspectRatio="xMidYMid meet" version="1.0"><defs><clipPath id="c8d03a7d09"><path d="M 5 186.574219 L 810 186.574219 L 810 560 L 5 560 Z M 5 186.574219 " clip-rule="nonzero"/></clipPath></defs><g clip-path="url(#c8d03a7d09)"><path fill="#ffffff" d="M 433.214844 231.351562 L 433.214844 276.128906 L 427.386719 272.304688 C 380.609375 241.542969 322.910156 239.542969 275.765625 267.027344 C 256.289062 278.492188 233.898438 301.976562 223.523438 322.179688 L 214.96875 338.5625 L 214.789062 293.417969 L 214.789062 248.460938 L 162.183594 248.460938 L 161.636719 340.746094 C 161.089844 431.757812 161.089844 433.394531 156.90625 443.40625 C 149.441406 461.972656 132.878906 475.988281 115.222656 478.898438 C 91.011719 482.722656 66.257812 464.519531 58.796875 437.214844 L 55.882812 426.839844 L 5.28125 426.839844 L 6.371094 433.578125 C 15.65625 489.273438 58.066406 528.589844 108.667969 528.773438 C 125.597656 528.773438 138.339844 526.042969 152.355469 519.492188 C 181.476562 505.65625 203.136719 477.988281 211.148438 444.316406 L 214.242188 431.574219 L 220.792969 445.40625 C 258.472656 523.496094 358.039062 549.34375 428.296875 498.921875 C 447.230469 485.632812 466.160156 462.882812 474.167969 444.496094 C 476.535156 439.402344 476.714844 446.136719 476.898438 499.105469 L 476.898438 559.71875 L 529.503906 559.71875 L 530.046875 483.632812 C 530.59375 409.183594 530.59375 407.546875 534.597656 400.085938 C 543.699219 383.15625 563.90625 373.507812 581.925781 377.695312 C 593.9375 380.242188 605.585938 388.980469 611.59375 399.539062 L 616.144531 407.730469 L 616.691406 483.8125 L 617.238281 559.71875 L 669.839844 559.71875 L 669.839844 485.453125 C 669.839844 414.828125 670.023438 411.003906 673.664062 403.179688 C 681.492188 385.703125 694.960938 376.96875 713.527344 376.96875 C 730.820312 376.96875 743.925781 384.792969 752.296875 400.449219 C 756.121094 407.546875 756.300781 409.914062 756.847656 482.722656 L 757.394531 557.898438 L 810.179688 557.898438 L 809.632812 479.261719 C 808.90625 403.726562 808.722656 400.085938 804.902344 389.890625 C 798.167969 371.871094 791.613281 361.496094 778.871094 349.664062 C 765.765625 337.105469 753.207031 330.1875 736.277344 325.820312 C 707.882812 318.539062 674.210938 326.367188 652.914062 344.933594 C 648.363281 348.9375 644.175781 352.210938 643.449219 352.210938 C 642.902344 352.210938 638.535156 348.9375 633.800781 345.113281 C 611.046875 326.367188 580.652344 319.085938 551.890625 325.820312 C 528.773438 331.28125 506.203125 346.933594 493.28125 366.410156 L 487.820312 374.601562 L 487.820312 186.574219 L 433.214844 186.574219 Z M 370.414062 303.976562 C 402.085938 312.351562 425.570312 336.375 431.394531 366.773438 C 440.675781 415.921875 411.917969 459.789062 363.679688 469.796875 C 341.472656 474.53125 319.085938 469.980469 299.425781 456.691406 C 286.140625 447.957031 277.585938 437.945312 269.757812 421.746094 C 258.835938 398.808594 259.566406 369.6875 271.578125 346.023438 C 276.492188 336.195312 293.421875 318.902344 303.796875 312.714844 C 322.726562 301.609375 348.210938 298.335938 370.414062 303.976562 Z M 370.414062 303.976562 " fill-opacity="1" fill-rule="nonzero"/></g><path fill="#ffffff" d="M 137.429688 539.332031 C 136.882812 539.875 136.519531 555.347656 136.519531 573.734375 L 136.519531 607.042969 L 147.257812 607.042969 L 147.804688 583.742188 L 148.351562 560.628906 L 163.820312 583.925781 C 178.382812 605.585938 179.65625 607.042969 184.753906 606.679688 L 190.214844 606.132812 L 190.761719 572.824219 L 191.125 539.695312 L 178.566406 539.695312 L 177.472656 583.742188 L 162.546875 561.902344 C 151.445312 545.882812 146.347656 539.875 143.070312 539.332031 C 140.523438 538.785156 137.972656 538.785156 137.429688 539.332031 Z M 137.429688 539.332031 " fill-opacity="1" fill-rule="nonzero"/><path fill="#ffffff" d="M 219.339844 542.0625 C 198.042969 553.890625 198.585938 591.933594 220.25 603.039062 C 231.167969 608.679688 248.824219 608.136719 259.019531 601.765625 L 265.753906 597.578125 L 265.753906 570.636719 L 236.628906 570.636719 L 236.628906 576.097656 C 236.628906 581.378906 236.8125 581.558594 245.730469 581.558594 C 254.46875 581.558594 254.832031 581.742188 254.832031 586.839844 C 254.832031 593.753906 247.371094 596.847656 234.445312 595.757812 C 227.164062 595.027344 224.070312 593.753906 220.976562 589.933594 C 212.601562 580.285156 213.148438 562.8125 222.070312 553.890625 C 226.4375 549.707031 228.804688 548.796875 236.628906 548.796875 C 244.09375 548.796875 246.824219 549.707031 250.28125 553.347656 C 252.828125 555.710938 254.832031 558.625 254.832031 559.898438 C 254.832031 561.171875 256.46875 561.539062 259.746094 560.628906 C 266.480469 558.988281 266.480469 559.171875 262.839844 551.527344 C 256.652344 538.421875 234.628906 533.507812 219.339844 542.0625 Z M 219.339844 542.0625 " fill-opacity="1" fill-rule="nonzero"/><path fill="#ffffff" d="M 357.675781 542.0625 C 348.027344 547.523438 342.203125 558.808594 342.203125 572.457031 C 342.203125 586.109375 348.027344 597.394531 357.675781 603.039062 C 367.320312 608.679688 384.066406 607.953125 392.804688 601.765625 C 405.910156 592.480469 410.277344 568.636719 401.722656 553.347656 C 393.351562 538.601562 372.964844 533.324219 357.675781 542.0625 Z M 386.433594 552.4375 C 396.628906 560.445312 397.71875 581.195312 388.4375 590.84375 C 375.875 603.949219 355.671875 596.121094 353.671875 577.375 C 351.667969 560.445312 360.039062 548.796875 374.054688 548.796875 C 378.972656 548.796875 383.339844 550.070312 386.433594 552.4375 Z M 386.433594 552.4375 " fill-opacity="1" fill-rule="nonzero"/><path fill="#ffffff" d="M 463.066406 539.148438 C 461.0625 539.511719 453.234375 545.882812 445.953125 553.347656 C 438.492188 560.808594 431.757812 566.996094 431.027344 566.996094 C 430.117188 566.996094 429.574219 560.808594 429.574219 553.347656 L 429.574219 539.695312 L 418.652344 539.695312 L 418.652344 607.042969 L 429.574219 607.042969 L 429.574219 595.574219 C 429.574219 585.5625 430.117188 583.378906 434.304688 579.558594 L 439.039062 575.1875 L 441.949219 579.011719 C 443.769531 581.195312 448.867188 588.292969 453.601562 594.847656 C 461.425781 605.949219 462.882812 607.042969 468.707031 607.042969 C 472.164062 607.042969 475.078125 606.496094 475.078125 605.949219 C 475.078125 605.40625 468.890625 596.304688 461.246094 585.746094 L 447.230469 566.632812 L 460.335938 553.527344 C 467.433594 546.429688 473.257812 539.875 473.257812 539.148438 C 473.257812 537.875 469.800781 537.875 463.066406 539.148438 Z M 463.066406 539.148438 " fill-opacity="1" fill-rule="nonzero"/><path fill="#ffffff" d="M 7.28125 573.367188 L 7.28125 607.042969 L 23.664062 607.042969 C 48.964844 607.042969 58.25 601.398438 58.25 586.109375 C 58.25 580.46875 57.15625 577.554688 53.699219 574.277344 C 49.695312 570.457031 49.511719 569.726562 51.695312 567.179688 C 58.25 559.898438 55.882812 546.066406 47.511719 541.515625 C 45.507812 540.605469 35.679688 539.695312 25.667969 539.695312 L 7.28125 539.695312 Z M 40.773438 551.160156 C 42.960938 552.800781 43.871094 555.347656 43.324219 558.808594 C 42.777344 563.902344 42.050781 564.449219 33.128906 565.722656 C 19.84375 567.90625 18.203125 566.996094 18.203125 556.988281 L 18.203125 548.796875 L 27.851562 548.796875 C 33.128906 548.796875 38.953125 549.886719 40.773438 551.160156 Z M 41.867188 578.464844 C 47.511719 581.195312 48.601562 587.929688 44.414062 592.664062 C 42.050781 595.394531 38.773438 596.121094 29.671875 596.121094 L 18.203125 596.121094 L 18.203125 576.097656 L 27.851562 576.097656 C 32.949219 576.097656 39.320312 577.191406 41.867188 578.464844 Z M 41.867188 578.464844 " fill-opacity="1" fill-rule="nonzero"/><path fill="#ffffff" d="M 85.917969 549.160156 C 83.914062 554.4375 79.179688 566.632812 75.542969 576.097656 C 71.902344 585.5625 67.714844 596.484375 66.257812 600.125 L 63.890625 607.042969 L 70.082031 607.042969 C 75.90625 607.042969 76.453125 606.679688 79.363281 597.03125 L 82.640625 587.019531 L 108.667969 587.019531 L 112.128906 596.484375 C 115.222656 605.222656 116.132812 606.132812 121.59375 606.679688 C 125.050781 607.042969 127.417969 606.496094 127.417969 605.222656 C 127.417969 604.128906 121.59375 588.839844 114.492188 571.367188 L 101.570312 539.695312 L 95.5625 539.695312 C 89.921875 539.695312 89.191406 540.421875 85.917969 549.160156 Z M 102.480469 573.367188 C 102.84375 576.28125 101.570312 577.191406 96.65625 577.554688 C 87.554688 578.464844 86.828125 576.28125 91.378906 564.269531 L 95.382812 553.710938 L 98.65625 561.71875 C 100.660156 566.085938 102.296875 571.183594 102.480469 573.367188 Z M 102.480469 573.367188 " fill-opacity="1" fill-rule="nonzero"/><path fill="#ffffff" d="M 280.316406 573.367188 L 280.316406 607.042969 L 291.238281 607.042969 L 291.238281 594.664062 C 291.238281 584.835938 291.964844 581.558594 294.511719 579.195312 C 296.332031 577.375 298.699219 576.097656 299.792969 576.097656 C 300.703125 576.097656 306.34375 583.015625 312.167969 591.570312 C 322.363281 606.496094 323.089844 607.042969 329.824219 607.042969 C 333.648438 607.042969 336.742188 606.679688 336.742188 606.132812 C 336.742188 605.585938 331.097656 597.578125 324.363281 588.292969 C 317.628906 579.195312 311.257812 570.457031 310.53125 569 C 309.4375 567.363281 313.078125 562.449219 322.363281 553.164062 L 335.648438 539.695312 L 328.367188 539.695312 C 321.816406 539.695312 319.996094 540.96875 307.617188 553.347656 C 300.15625 560.808594 293.421875 566.996094 292.691406 566.996094 C 291.78125 566.996094 291.238281 560.808594 291.238281 553.347656 L 291.238281 539.695312 L 280.316406 539.695312 Z M 280.316406 573.367188 " fill-opacity="1" fill-rule="nonzero"/></svg>